<svg id="Layer_1" data-name="Layer 1" xmlns="http://www.w3.org/2000/svg" viewBox="0 0 1140.56 544.98"><defs><style>.cls-1,.cls-2{fill:#fff;}.cls-2{font-size:130px;font-family:Bauhaus93, "Bauhaus 93";letter-spacing:0.05em;}</style></defs><g id="layer1"><path id="path3924" class="cls-1" d="M664.31,363.76c-1.32-1.17-2.93-1.61-5.56-2L485.88,341.55c-4.46-.75-4.5-.34-2.73,3.15l79.58,149.55c1.91,3.32,3,4,6.41,4.16L751.28,512c1.4.12,1.7-.09.94-1.23l-85.73-144a11.06,11.06,0,0,0-2.18-3Zm11.48,41.88c-3.73,6.68-16.79,6.14-29.15-1.14S627.27,385.91,631,379.22s16.84-6.19,29.21,1.09a45.27,45.27,0,0,1,8.13,6.06C675.36,392.94,678.59,400.63,675.79,405.64Zm47.68,81.75c-3.73,6.68-16.79,6.25-29.16-1S675,467.71,678.74,461s16.74-6.19,29.1,1.09a46.44,46.44,0,0,1,8.19,6.11C723,474.79,726.27,482.38,723.47,487.39ZM610.6,379.93c7,6.57,10.19,14.21,7.39,19.22-3.73,6.69-16.74,6.2-29.1-1.08s-19.37-18.6-15.63-25.28,16.74-6.2,29.1,1.09a46.67,46.67,0,0,1,8.24,6.05ZM753.29,524.45c-.16-.26-.7-.31-1.66-.35L568.14,510.44a4.06,4.06,0,0,0-4.5,2.71l-95.7,162.07c-2.23,3-1.76,3.54,2.67,3.47l181.67,6.69c2.31.06,2.68-.23,3.65-1.9l96.8-157.56c.48-.82.73-1.22.56-1.47Zm-96-60.92c7,6.57,10.24,14.16,7.44,19.17-3.73,6.68-16.74,6.19-29.11-1.09S616.23,463,620,456.33s16.75-6.19,29.11,1.09a46,46,0,0,1,8.19,6.11Zm-105.85-90c7,6.57,10.24,14.16,7.44,19.17-3.74,6.68-16.8,6.25-29.16-1S510.38,373,514.11,366.35s16.74-6.19,29.11,1.09a46,46,0,0,1,8.19,6.11ZM724,542.86a10.28,10.28,0,0,1,2.24,4.37c2.27,9-6.46,21.14-19.53,27s-25.5,3.37-27.78-5.64,6.46-21.14,19.53-27c9.8-4.43,19.24-4.1,24.31.13a11.07,11.07,0,0,1,1.23,1.14Zm-126.61-85c7,6.57,10.24,14.16,7.44,19.17-3.74,6.69-16.75,6.2-29.11-1.09s-19.36-18.59-15.63-25.27,16.75-6.2,29.11,1.09a46.41,46.41,0,0,1,8.19,6.1ZM470.73,347.13c-.55-.77-.92-.5-1.53.67L377,508.87c-1.83,2.47-1.56,3.08-.28,6.32l77.53,154.54c1.35,3.22,1.46,1.64,3.19-.43l95.35-161.6c1.31-2.22,1.77-2.56.25-5.85L471.39,348.24a6.87,6.87,0,0,0-.66-1.11ZM470,387.08c3.45,3.09,6.16,8.44,7.29,15.24,2.27,13.6-2.61,27.95-10.85,32.11s-16.78-3.49-19.05-17.08,2.62-28,10.86-32.11c4.12-2.08,8.31-1.26,11.75,1.84ZM605.28,534.25a11.82,11.82,0,0,1,.92,1,10.34,10.34,0,0,1,2.23,4.36c2.27,9-6.41,21.09-19.48,27S563.4,570,561.13,561s6.51-21.09,19.57-27c10-4.5,19.57-4.14,24.58.28Zm28.6,55.46a11.63,11.63,0,0,1,.91.95A10.29,10.29,0,0,1,637,595c2.28,9-6.41,21.09-19.47,27s-25.55,3.43-27.83-5.58,6.51-21.1,19.58-27c10-4.5,19.56-4.15,24.58.27ZM662,644.42a10.23,10.23,0,0,1,2.23,4.36c2.28,9-6.46,21.15-19.53,27.05s-25.49,3.37-27.77-5.64,6.46-21,19.53-26.94c9.8-4.43,19.23-4.21,24.31,0a12.21,12.21,0,0,1,1.23,1.15Zm-198.14-160a16.81,16.81,0,0,1,1.4,1.4c2.84,3.18,5,8,6,13.95,2.27,13.59-2.56,28-10.8,32.15s-16.78-3.48-19.05-17.08,2.56-28,10.8-32.16c4.06-2,8.23-1.23,11.65,1.74Zm82.67,159.11c2.28,9-6.51,21.1-19.58,27S501.49,674,499.21,665s6.46-21.15,19.53-27.06c9.8-4.43,19.24-4.1,24.31.13a12.21,12.21,0,0,1,1.23,1.15A10.23,10.23,0,0,1,546.51,643.54Zm-79.17-41.37c2.27,13.59-2.61,28-10.85,32.1s-16.73-3.53-19-17.13,2.62-27.95,10.86-32.11c4.12-2.08,8.26-1.2,11.7,1.89S466.21,595.37,467.34,602.17Z" transform="translate(-112.72 -140.4)"/></g><path class="cls-1" d="M356.46,405" transform="translate(-112.72 -140.4)"/><path class="cls-1" d="M447.29,223.85c.06-1.31-.13-1.74-1-1.34h0a7.79,7.79,0,0,0-1.13.63L297.84,315.67c-2.95,2.09-2.73,2.62-2.7,5.2l2.21,187.62c.47,2.66-.22,4.08,2.55,2l72-47.66L445.43,335.5ZM340.66,473.21c-8.74,10.66-19.93,13.1-25,5.4s-2.16-22.59,6.58-33.25c4.37-5.33,9.39-8.62,13.91-9.59s8.56.34,11.1,4.19C352.32,447.66,349.4,462.55,340.66,473.21Zm47.56-90.64c-8.74,10.66-20,13-25,5.32s-2.09-22.6,6.64-33.26c3.83-4.67,8.11-7.76,12.15-9.11a14.26,14.26,0,0,1,1.91-.51h0c4.45-.88,8.47.5,11,4.29C400,357,397,371.9,388.22,382.57ZM431.54,295c-8.74,10.66-20,13-25,5.33s-2.17-22.59,6.57-33.25c4.37-5.33,9.39-8.62,13.92-9.59h0c4.52-1,8.57.41,11.11,4.26C443.19,269.46,440.28,284.34,431.54,295Z" transform="translate(-112.72 -140.4)"/><path class="cls-1" d="M283.06,320.21a4,4,0,0,0-2.56-4.59L114.59,236.08c-.86-.44-1.35-.66-1.62-.53h0c-.27.14-.26.61-.24,1.56L118.2,422c0,1.93.19,2.37,2.22,3.46l160.87,84.68c3.81,2.26,4.46,2.07,4-1.68Zm-158-51.44a10.39,10.39,0,0,1,4.11-2.68,11.44,11.44,0,0,1,1.64-.37c6.5-1.15,14.85,3.27,21.15,12,8.39,11.63,9.92,26.5,3.46,33.18s-18.51,2.69-26.9-8.94S118.6,275.45,125.06,268.77Zm33.59,161.09c-6.46,6.68-18.5,2.69-26.89-8.94s-9.92-26.5-3.46-33.18a10.26,10.26,0,0,1,4.11-2.67,10,10,0,0,1,1.64-.38c6.5-1.15,14.8,3.36,21.09,12.08C163.53,408.4,165.12,423.19,158.65,429.86ZM209,396.79c-6.46,6.68-18.52,2.61-26.91-9s-9.9-26.43-3.44-33.11a10.19,10.19,0,0,1,4.11-2.67,10.73,10.73,0,0,1,1.26-.37h0c6.55-1.33,15.06,3.14,21.45,12C213.86,375.25,215.46,390.11,209,396.79Zm22.07-76a10.14,10.14,0,0,1,4.1-2.68,10.85,10.85,0,0,1,1.27-.36h0c6.55-1.34,15.06,3.14,21.45,12,8.39,11.63,10,26.48,3.53,33.16s-18.52,2.62-26.91-9S224.6,327.49,231.07,320.81Zm32.26,163.13c-6.46,6.67-18.44,2.67-26.83-9s-10-26.49-3.53-33.17a10.26,10.26,0,0,1,4.11-2.67,11.47,11.47,0,0,1,1.64-.38c6.5-1.14,14.85,3.27,21.15,12C268.26,462.38,269.79,477.26,263.33,483.94Z" transform="translate(-112.72 -140.4)"/><path class="cls-1" d="M436,210.12,276,141.59c-2.45-1-4.06-1.42-5.79-1.06h0a11.06,11.06,0,0,0-3.4,1.53l-146,82.18c-1.23.61-1.08.94.2,1.53l164.72,78.92c3.05,1.53,4.31,1.51,7.63-.42l143.48-90.06C440,212.07,440.19,211.7,436,210.12ZM183.09,231.89c-14.35.16-25.89-6-25.8-13.62.06-5.74,6.64-10.71,16-12.92a46.5,46.5,0,0,1,10.15-1.21c14.35-.16,25.87,5.89,25.78,13.55S197.43,231.74,183.09,231.89ZM236.37,257c-14.35.16-25.87-5.89-25.78-13.55.06-5.74,6.64-10.71,16-12.92h0a46.5,46.5,0,0,1,10.15-1.21c14.35-.16,25.87,5.89,25.78,13.55S250.72,256.86,236.37,257Zm3-85.9c.07-5.74,6.7-10.8,16-13a45.27,45.27,0,0,1,10.08-1.2c14.34-.16,26,6,25.86,13.6s-11.79,14-26.14,14.14S239.25,178.78,239.34,171.12ZM291.09,281.9c-14.34.15-25.87-5.9-25.78-13.56.07-5.74,6.65-10.71,16-12.91h0a45.79,45.79,0,0,1,10.14-1.22c14.35-.16,25.87,5.89,25.78,13.55S305.44,281.74,291.09,281.9Zm27.39-74.06c-14.35.16-25.87-5.9-25.78-13.55.06-5.74,6.63-10.79,16-13h0a46.15,46.15,0,0,1,10.17-1.15c14.34-.16,25.87,5.9,25.78,13.55S332.83,207.68,318.48,207.84ZM373,231.78c-14.35.16-25.89-6-25.8-13.62.07-5.74,6.65-10.71,16-12.92h0A46.32,46.32,0,0,1,373.33,204c14.35-.15,25.87,5.9,25.78,13.56S387.34,231.62,373,231.78Z" transform="translate(-112.72 -140.4)"/><text class="cls-2" transform="translate(433.74 149.6)">True</text><text class="cls-2" transform="translate(628.53 286.23)">Random</text></svg>